PathFileType	4	(X/Y/Z)	 normalP072.trc
DataRate	CameraRate	NumFrames	NumMarkers	Units	OrigDataRate	OrigDataStartFrame	OrigNumFrames
100	100	8	49	M	100	211	231
Frame#	Time	RM1D			RM5D			RM2B			LM1D			LM5D			LM2B			RCAL			LCAL			RLMAL			LLMAL			RSTL			LSTL			RFLE			LFLE			RHFIB			LHFIB			RTTUB			LTTUB			RSSH			LSSH			RTL			LTL			RTAP			RTAD			LTAP			LTAD			RTPP			RTPD			LTPP			LTPD			RPSIS			LPSIS			RASIS			LASIS			T10			T2			IJ			SA			RACR			LACR			RHLE			LHLE			RUSP			LUSP			RCB			LCB			IN			LHME			RHME			
		X1	Y1	Z1	X2	Y2	Z2	X3	Y3	Z3	X4	Y4	Z4	X5	Y5	Z5	X6	Y6	Z6	X7	Y7	Z7	X8	Y8	Z8	X9	Y9	Z9	X10	Y10	Z10	X11	Y11	Z11	X12	Y12	Z12	X13	Y13	Z13	X14	Y14	Z14	X15	Y15	Z15	X16	Y16	Z16	X17	Y17	Z17	X18	Y18	Z18	X19	Y19	Z19	X20	Y20	Z20	X21	Y21	Z21	X22	Y22	Z22	X23	Y23	Z23	X24	Y24	Z24	X25	Y25	Z25	X26	Y26	Z26	X27	Y27	Z27	X28	Y28	Z28	X29	Y29	Z29	X30	Y30	Z30	X31	Y31	Z31	X32	Y32	Z32	X33	Y33	Z33	X34	Y34	Z34	X35	Y35	Z35	X36	Y36	Z36	X37	Y37	Z37	X38	Y38	Z38	X39	Y39	Z39	X40	Y40	Z40	X41	Y41	Z41	X42	Y42	Z42	X43	Y43	Z43	X44	Y44	Z44	X45	Y45	Z45	X46	Y46	Z46	X47	Y47	Z47	X48	Y48	Z48	X49	Y49	Z49	
211	2.1100	0.735495	0.079661	-0.217045	0.683851	0.100652	-0.134828	0.715306	0.124789	-0.176042	0.992696	0.041365	-0.273795	0.958143	0.024773	-0.373202	0.941617	0.060514	-0.311209	0.594518	0.224248	-0.227093	0.779091	0.051065	-0.316892	0.652231	0.211161	-0.168116	0.844712	0.071509	-0.350951	0.632596	0.182736	-0.252032	0.829141	0.039338	-0.274316	0.963310	0.487187	-0.102868	0.925254	0.484554	-0.374200	0.912541	0.446559	-0.103504	0.898805	0.420653	-0.382122	0.954411	0.405500	-0.147005	0.956471	0.416548	-0.331313	0.877525	0.340571	-0.166400	0.908972	0.205361	-0.309351	0.934126	0.654829	-0.081285	0.900497	0.665730	-0.413909	1.010823	0.717694	-0.149765	1.024822	0.635214	-0.151234	0.981080	0.736542	-0.344929	0.982601	0.641432	-0.329395	0.836238	0.677822	-0.171339	0.870726	0.590596	-0.180213	0.807843	0.657712	-0.348106	0.828773	0.585185	-0.345093	0.739314	1.019450	-0.207455	0.742385	1.023627	-0.304991	0.912198	1.018497	-0.141866	0.918917	1.019242	-0.374691	0.741318	1.220412	-0.261985	0.791650	1.448550	-0.269921	0.950282	1.400623	-0.268508	0.959587	1.344608	-0.267672	0.866633	1.459855	-0.068680	0.849257	1.439570	-0.474416	0.785778	1.116806	0.004783	0.827406	1.083532	-0.525468	0.914663	0.882043	0.016176	0.953279	0.843793	-0.531760	0.998351	1.619638	-0.235210	0.994391	1.601903	-0.363912	0.840414	1.519163	-0.290076	0.811553	1.077991	-0.440636	0.761919	1.107693	-0.084429	
212	2.1200	0.775843	0.077155	-0.216574	0.723463	0.095502	-0.134337	0.753223	0.121011	-0.175675	0.992509	0.041109	-0.273863	0.958170	0.024692	-0.373269	0.941540	0.060370	-0.311344	0.627151	0.213983	-0.226604	0.779449	0.051667	-0.316745	0.685633	0.203819	-0.167980	0.844699	0.071759	-0.350905	0.667244	0.174224	-0.251990	0.829257	0.039633	-0.274314	0.986690	0.491851	-0.104084	0.928023	0.484388	-0.373986	0.937016	0.449660	-0.104637	0.901160	0.420882	-0.381878	0.980413	0.409866	-0.147947	0.958417	0.416159	-0.331106	0.905920	0.342103	-0.166853	0.909740	0.205242	-0.309289	0.954321	0.658821	-0.081691	0.906468	0.666663	-0.413564	1.029220	0.723141	-0.150711	1.045033	0.641024	-0.151915	0.989798	0.735451	-0.344878	0.988726	0.639952	-0.329294	0.855016	0.678388	-0.170381	0.892431	0.592158	-0.180025	0.814656	0.660043	-0.348764	0.833848	0.587032	-0.345464	0.752687	1.022125	-0.207255	0.755693	1.025918	-0.305143	0.924935	1.020464	-0.143018	0.932094	1.020315	-0.375121	0.754827	1.221870	-0.262862	0.804701	1.450000	-0.270476	0.963269	1.402903	-0.267991	0.972837	1.346942	-0.267131	0.878219	1.461693	-0.068653	0.863484	1.442121	-0.474348	0.796171	1.118939	0.003351	0.844120	1.085649	-0.525204	0.921090	0.882067	0.017192	0.977513	0.849613	-0.527047	1.010951	1.620750	-0.233421	1.008449	1.604346	-0.362782	0.853474	1.521213	-0.289958	0.827156	1.080354	-0.440534	0.773483	1.110126	-0.086062	
213	2.1300	0.816851	0.074369	-0.215700	0.763424	0.090086	-0.133538	0.791437	0.116651	-0.175129	0.992621	0.041091	-0.273847	0.958214	0.024630	-0.373244	0.942020	0.060538	-0.311225	0.660897	0.203094	-0.226565	0.779575	0.052161	-0.316558	0.719639	0.195743	-0.168036	0.844737	0.072079	-0.350797	0.701071	0.164267	-0.252067	0.828853	0.039583	-0.274421	1.009579	0.496353	-0.105382	0.930523	0.484360	-0.373756	0.961005	0.452235	-0.105960	0.903024	0.421158	-0.381649	1.006010	0.414118	-0.149189	0.960153	0.415906	-0.330812	0.934388	0.343390	-0.167752	0.910353	0.205504	-0.309024	0.974200	0.662705	-0.082133	0.914492	0.666594	-0.413628	1.047188	0.728330	-0.151596	1.064877	0.646660	-0.152788	0.998404	0.734172	-0.345053	0.994763	0.638493	-0.329287	0.872872	0.679417	-0.169089	0.913289	0.594245	-0.179536	0.821231	0.662496	-0.349512	0.838758	0.588873	-0.346093	0.765988	1.024767	-0.207073	0.769060	1.028176	-0.305405	0.938094	1.022417	-0.143727	0.945376	1.021250	-0.375339	0.768317	1.223252	-0.263797	0.817691	1.451346	-0.270932	0.976305	1.405020	-0.267436	0.986070	1.349120	-0.266644	0.889885	1.463295	-0.068611	0.877601	1.444634	-0.474248	0.806407	1.120875	0.002022	0.860609	1.087896	-0.524898	0.927412	0.882100	0.018214	1.001357	0.855758	-0.522196	1.023736	1.622254	-0.231799	1.022448	1.606498	-0.361448	0.866497	1.523202	-0.289739	0.842555	1.082827	-0.440419	0.784955	1.112406	-0.087640	
214	2.1400	0.858311	0.071186	-0.214741	0.803817	0.084100	-0.132814	0.829841	0.111679	-0.174556	0.992920	0.041224	-0.273813	0.958216	0.024603	-0.373197	0.941928	0.060544	-0.311419	0.694720	0.191025	-0.227391	0.779661	0.052715	-0.316273	0.754511	0.187058	-0.168015	0.844264	0.072446	-0.350988	0.740121	0.154714	-0.251129	0.829338	0.040262	-0.274297	1.031970	0.500579	-0.106725	0.932807	0.484369	-0.373477	0.984852	0.454490	-0.107306	0.904699	0.421590	-0.381317	1.031255	0.418211	-0.150712	0.963506	0.416408	-0.330822	0.962784	0.344441	-0.169131	0.910952	0.205717	-0.308929	0.993550	0.666356	-0.082553	0.919902	0.666613	-0.413994	1.065148	0.733566	-0.152413	1.084291	0.652082	-0.153872	1.006647	0.732748	-0.344953	1.001054	0.636967	-0.329179	0.890331	0.680597	-0.168032	0.933076	0.596830	-0.179007	0.825741	0.664603	-0.352143	0.841783	0.590391	-0.348449	0.779416	1.027003	-0.207162	0.782484	1.030221	-0.305731	0.951196	1.024136	-0.144379	0.958745	1.021963	-0.375481	0.781873	1.224395	-0.264741	0.830766	1.452442	-0.271368	0.989307	1.406939	-0.266955	0.999375	1.351122	-0.266150	0.901667	1.464596	-0.068539	0.891626	1.447003	-0.474118	0.816360	1.122614	0.000783	0.876956	1.090021	-0.524657	0.933724	0.882061	0.019202	1.024762	0.862087	-0.517293	1.036780	1.623736	-0.230202	1.036356	1.608236	-0.360018	0.879537	1.525000	-0.289419	0.857801	1.085238	-0.440293	0.796536	1.114452	-0.089104	
215	2.1500	0.900691	0.068216	-0.213434	0.844876	0.078086	-0.131958	0.869353	0.106825	-0.173633	0.993039	0.041184	-0.273808	0.958258	0.024596	-0.373099	0.942031	0.060682	-0.311417	0.730170	0.178618	-0.227647	0.779792	0.053311	-0.315807	0.789887	0.177786	-0.168004	0.844198	0.072927	-0.350728	0.777536	0.144568	-0.250629	0.829568	0.040711	-0.274138	1.053889	0.504423	-0.108207	0.934928	0.484473	-0.373172	1.008487	0.456274	-0.108557	0.906161	0.422031	-0.381001	1.056018	0.422043	-0.152436	0.963190	0.415612	-0.330069	0.990952	0.345490	-0.170713	0.912039	0.206263	-0.308602	1.013184	0.669863	-0.082946	0.928439	0.667776	-0.412405	1.082371	0.738185	-0.153188	1.103134	0.657265	-0.155135	1.020409	0.735261	-0.345961	1.007164	0.636843	-0.327663	0.907191	0.681995	-0.167019	0.951739	0.599644	-0.178652	0.831468	0.667009	-0.353116	0.846483	0.592440	-0.349093	0.792725	1.028851	-0.207251	0.795904	1.031924	-0.306118	0.964266	1.025526	-0.144950	0.972143	1.022392	-0.375558	0.795479	1.225279	-0.265707	0.843857	1.453294	-0.271789	1.002349	1.408571	-0.266419	1.012657	1.352824	-0.265666	0.913506	1.465547	-0.068449	0.905707	1.449160	-0.473903	0.826191	1.124088	-0.000355	0.893144	1.092035	-0.524494	0.940037	0.881836	0.020198	1.047757	0.868491	-0.512391	1.049998	1.624994	-0.228736	1.050199	1.609546	-0.358478	0.892482	1.526493	-0.289035	0.872917	1.087523	-0.440219	0.807951	1.116149	-0.090529	
216	2.1600	0.943656	0.065470	-0.211999	0.886793	0.072285	-0.130923	0.909664	0.102232	-0.172469	0.993204	0.041165	-0.273765	0.958252	0.024591	-0.372945	0.942253	0.060713	-0.311269	0.768327	0.165845	-0.227143	0.779696	0.053954	-0.315141	0.826337	0.168435	-0.167905	0.844117	0.073436	-0.350399	0.815826	0.134056	-0.250125	0.829361	0.041034	-0.273613	1.075253	0.507905	-0.109658	0.936835	0.484636	-0.372900	1.032093	0.457720	-0.110312	0.907372	0.422510	-0.380711	1.080304	0.425763	-0.154255	0.964321	0.415589	-0.329800	1.018755	0.346351	-0.172413	0.913250	0.206683	-0.308421	1.031569	0.672853	-0.083272	0.935470	0.667872	-0.413946	1.099290	0.742661	-0.153861	1.121403	0.662057	-0.156557	1.023278	0.730499	-0.343900	1.011989	0.634221	-0.328144	0.924384	0.683112	-0.166254	0.969590	0.602159	-0.178389	0.837992	0.669536	-0.353838	0.851103	0.594602	-0.349675	0.805973	1.030341	-0.207396	0.809281	1.033243	-0.306493	0.977285	1.026517	-0.145401	0.985551	1.022535	-0.375626	0.809096	1.225894	-0.266689	0.856949	1.453892	-0.272192	1.015451	1.409868	-0.265846	1.025997	1.354223	-0.265210	0.925413	1.466130	-0.068343	0.919816	1.451078	-0.473677	0.835830	1.125183	-0.001536	0.909164	1.093903	-0.524351	0.946367	0.881393	0.021204	1.070726	0.875022	-0.506980	1.063199	1.625896	-0.227314	1.063939	1.610580	-0.356941	0.905505	1.527587	-0.288645	0.887875	1.089519	-0.440275	0.819348	1.117402	-0.091655	
217	2.1700	0.986996	0.062691	-0.210323	0.929407	0.066853	-0.129835	0.950647	0.097864	-0.171599	0.992721	0.040829	-0.274291	0.958253	0.024607	-0.372731	0.942422	0.060900	-0.311168	0.804712	0.152363	-0.227957	0.779769	0.054735	-0.314391	0.863507	0.158772	-0.167679	0.844004	0.074107	-0.349889	0.855836	0.123496	-0.249712	0.830100	0.041771	-0.273865	1.095812	0.510994	-0.111190	0.938693	0.484846	-0.372626	1.054655	0.458695	-0.111700	0.908443	0.423083	-0.380453	1.103916	0.429224	-0.156119	0.965223	0.415675	-0.329615	1.046210	0.346925	-0.174094	0.913645	0.206920	-0.308489	1.049030	0.675310	-0.083739	0.942829	0.667959	-0.413653	1.115686	0.746626	-0.154739	1.139001	0.666360	-0.158038	1.031576	0.729251	-0.342649	1.017672	0.632833	-0.327368	0.940580	0.684050	-0.165316	0.986848	0.604059	-0.178216	0.844531	0.672108	-0.354535	0.855897	0.596775	-0.350305	0.819183	1.031400	-0.207588	0.822687	1.034183	-0.306846	0.990286	1.027141	-0.145763	0.998973	1.022476	-0.375734	0.822706	1.226260	-0.267619	0.870128	1.454199	-0.272566	1.028606	1.410797	-0.265251	1.039365	1.355192	-0.264697	0.937401	1.466329	-0.068199	0.934005	1.452689	-0.473373	0.845513	1.125907	-0.002611	0.925178	1.095485	-0.524428	0.952718	0.880702	0.022282	1.092884	0.881350	-0.502120	1.076425	1.626482	-0.225769	1.077565	1.611505	-0.355346	0.918636	1.528314	-0.288211	0.902553	1.091278	-0.440552	0.830479	1.118251	-0.092725	
218	2.1800	1.030859	0.060500	-0.208800	0.972526	0.061716	-0.128661	0.991791	0.093470	-0.170671	0.993412	0.041046	-0.273823	0.958180	0.024635	-0.372504	0.942472	0.060941	-0.311056	0.849547	0.143165	-0.229792	0.779867	0.055663	-0.313462	0.901638	0.149093	-0.167341	0.843829	0.074828	-0.349322	0.896373	0.113504	-0.249231	0.829456	0.042433	-0.272386	1.115685	0.513734	-0.112765	0.940480	0.485185	-0.372374	1.076560	0.459347	-0.112981	0.909450	0.423733	-0.380170	1.126812	0.432369	-0.157909	0.966070	0.415806	-0.329580	1.073444	0.347219	-0.175592	0.913808	0.207396	-0.308474	1.066420	0.677605	-0.084255	0.949692	0.668615	-0.413092	1.131427	0.749920	-0.155976	1.155886	0.670047	-0.159642	1.045593	0.730535	-0.338292	1.024508	0.631928	-0.326570	0.956286	0.684925	-0.164181	1.003577	0.605540	-0.178124	0.851232	0.674648	-0.355172	0.860803	0.598939	-0.350871	0.832353	1.031947	-0.207680	0.836027	1.034711	-0.307119	1.003302	1.027386	-0.146059	1.012395	1.022145	-0.375836	0.836298	1.226315	-0.268516	0.883457	1.454175	-0.272939	1.041859	1.411292	-0.264549	1.052779	1.355768	-0.264114	0.949413	1.466114	-0.068003	0.948332	1.453931	-0.473037	0.853910	1.125823	-0.004844	0.941155	1.096721	-0.524582	0.959601	0.879689	0.023420	1.114603	0.887483	-0.497359	1.089581	1.626650	-0.224121	1.091245	1.612422	-0.353751	0.931898	1.528667	-0.287758	0.917272	1.092593	-0.440887	0.841594	1.118623	-0.093505	
